<?xml version="1.0" encoding="iso-8859-1"?>
<!-- Uploaded to: SVG Repo, www.svgrepo.com, Generator: SVG Repo Mixer Tools -->
<svg fill="#fff" height="60px" width="60px" version="1.1" id="Layer_1" xmlns="http://www.w3.org/2000/svg" xmlns:xlink="http://www.w3.org/1999/xlink" 
	 viewBox="0 0 512 512" xml:space="preserve">
<g transform="translate(0 -1)">
	<g>
		<g>
			<path d="M204.8,444.733h238.933V274.067H204.8V444.733z M290.133,308.2c0-5.12,3.413-8.533,8.533-8.533H332.8
				c18.773,0,34.133,15.36,34.133,34.133c0,18.773-15.36,34.133-34.133,34.133h-25.6V410.6c0,5.12-3.413,8.533-8.533,8.533
				s-8.533-3.413-8.533-8.533V308.2z"/>
			<path d="M349.867,333.8c0-9.387-7.68-17.067-17.067-17.067h-25.6v34.133h25.6C342.187,350.867,349.867,343.187,349.867,333.8z"/>
			<path d="M486.4,111.933c14.507,0,25.6-11.093,25.6-25.6s-11.093-25.6-25.6-25.6H51.2V43.667c0-14.507-11.093-25.6-25.6-25.6
				C11.093,18.067,0,29.16,0,43.667V282.6c0,14.507,11.093,25.6,25.6,25.6c14.507,0,25.6-11.093,25.6-25.6v-17.067
				c0-78.507,59.733-144.213,136.533-152.747v110.08h-25.6c-5.12,0-8.533,3.413-8.533,8.533v256c0,5.12,3.413,8.533,8.533,8.533
				H486.4c5.12,0,8.533-3.413,8.533-8.533v-256c0-5.12-3.413-8.533-8.533-8.533h-25.6V111.933H486.4z M51.2,191.293v-79.36h79.36
				C96.427,129,68.267,157.16,51.2,191.293z M204.8,111.933h238.933v110.933H204.8V111.933z M460.8,453.267
				c0,5.12-3.413,8.533-8.533,8.533h-256c-5.12,0-8.533-3.413-8.533-8.533V265.533c0-5.12,3.413-8.533,8.533-8.533h256
				c5.12,0,8.533,3.413,8.533,8.533V453.267z"/>
		</g>
	</g>
</g>
</svg>